<svg xmlns="http://www.w3.org/2000/svg" width="96" height="96" viewBox="0 0 96 96" fill="none">
  <g filter="url(#filter0_i_0_662)">
    <rect width="96" height="96" rx="10" fill="#1F3641"/>
  </g>
  <path fill-rule="evenodd" clip-rule="evenodd" d="M67.4462 30.6122L61.3878 24.5538C60.6494 23.8154 59.4522 23.8154 58.7137 24.5538L48 35.2676L37.2863 24.5538C36.5478 23.8154 35.3506 23.8154 34.6122 24.5538L28.5538 30.6122C27.8154 31.3506 27.8154 32.5478 28.5538 33.2863L39.2676 44L28.5538 54.7137C27.8154 55.4522 27.8154 56.6494 28.5538 57.3878L34.6122 63.4462C35.3506 64.1846 36.5478 64.1846 37.2863 63.4462L48 52.7324L58.7137 63.4462C59.4522 64.1846 60.6494 64.1846 61.3878 63.4462L67.4462 57.3878C68.1846 56.6494 68.1846 55.4522 67.4462 54.7137L56.7324 44L67.4462 33.2863C68.1846 32.5478 68.1846 31.3506 67.4462 30.6122Z" fill="#31C3BD"/>
  <defs>
    <filter id="filter0_i_0_662" x="0" y="0" width="96" height="96" filterUnits="userSpaceOnUse" color-interpolation-filters="sRGB">
      <feFlood flood-opacity="0" result="BackgroundImageFix"/>
      <feBlend mode="normal" in="SourceGraphic" in2="BackgroundImageFix" result="shape"/>
      <feColorMatrix in="SourceAlpha" type="matrix" values="0 0 0 0 0 0 0 0 0 0 0 0 0 0 0 0 0 0 127 0" result="hardAlpha"/>
      <feOffset dy="-8"/>
      <feComposite in2="hardAlpha" operator="arithmetic" k2="-1" k3="1"/>
      <feColorMatrix type="matrix" values="0 0 0 0 0.0627451 0 0 0 0 0.129412 0 0 0 0 0.164706 0 0 0 1 0"/>
      <feBlend mode="normal" in2="shape" result="effect1_innerShadow_0_662"/>
    </filter>
  </defs>
</svg>